<svg width="70" height="51" viewBox="0 0 70 51" fill="none" xmlns="http://www.w3.org/2000/svg">
<g clip-path="url(#clip0_117_80)">
<path d="M13.1523 31.502V35.1934H3.08984V31.502H13.1523ZM4.79883 15.2871V35.1934H0V15.2871H4.79883Z" fill="white"/>
<path d="M31.1445 24.8438V25.6504C31.1445 27.1725 30.9303 28.5397 30.502 29.752C30.0827 30.9551 29.4857 31.985 28.7109 32.8418C27.9362 33.6895 27.0202 34.3411 25.9629 34.7969C24.9056 35.2435 23.7389 35.4668 22.4629 35.4668C21.1777 35.4668 20.002 35.2435 18.9355 34.7969C17.8783 34.3411 16.9577 33.6895 16.1738 32.8418C15.3991 31.985 14.7975 30.9551 14.3691 29.752C13.9499 28.5397 13.7402 27.1725 13.7402 25.6504V24.8438C13.7402 23.3216 13.9499 21.9544 14.3691 20.7422C14.7975 19.5299 15.3945 18.5 16.1602 17.6523C16.9349 16.7956 17.8509 16.1439 18.9082 15.6973C19.9746 15.2415 21.1504 15.0137 22.4355 15.0137C23.7116 15.0137 24.8783 15.2415 25.9355 15.6973C27.002 16.1439 27.9225 16.7956 28.6973 17.6523C29.472 18.5 30.0736 19.5299 30.502 20.7422C30.9303 21.9544 31.1445 23.3216 31.1445 24.8438ZM26.2773 25.6504V24.8164C26.2773 23.832 26.1908 22.9661 26.0176 22.2188C25.8535 21.4622 25.6074 20.8288 25.2793 20.3184C24.9512 19.8079 24.5456 19.4251 24.0625 19.1699C23.5885 18.9056 23.0462 18.7734 22.4355 18.7734C21.7975 18.7734 21.2415 18.9056 20.7676 19.1699C20.2936 19.4251 19.8971 19.8079 19.5781 20.3184C19.2591 20.8288 19.0176 21.4622 18.8535 22.2188C18.6986 22.9661 18.6211 23.832 18.6211 24.8164V25.6504C18.6211 26.6257 18.6986 27.4915 18.8535 28.248C19.0176 28.9954 19.2591 29.6289 19.5781 30.1484C19.9062 30.668 20.3073 31.0599 20.7812 31.3242C21.2643 31.5885 21.8249 31.7207 22.4629 31.7207C23.0736 31.7207 23.6159 31.5885 24.0898 31.3242C24.5638 31.0599 24.9603 30.668 25.2793 30.1484C25.6074 29.6289 25.8535 28.9954 26.0176 28.248C26.1908 27.4915 26.2773 26.6257 26.2773 25.6504Z" fill="white"/>
<path d="M49.916 24.5566V32.7324C49.5788 33.1061 49.0592 33.5072 48.3574 33.9355C47.6647 34.3548 46.7897 34.7148 45.7324 35.0156C44.6751 35.3164 43.431 35.4668 42 35.4668C40.6784 35.4668 39.4798 35.2572 38.4043 34.8379C37.3288 34.4095 36.4036 33.7852 35.6289 32.9648C34.8633 32.1354 34.2708 31.1237 33.8516 29.9297C33.4414 28.7266 33.2363 27.3503 33.2363 25.8008V24.6934C33.2363 23.1439 33.446 21.7676 33.8652 20.5645C34.2845 19.3613 34.8724 18.3496 35.6289 17.5293C36.3945 16.6999 37.2923 16.071 38.3223 15.6426C39.3613 15.2142 40.5007 15 41.7402 15C43.5723 15 45.0625 15.2917 46.2109 15.875C47.3594 16.4492 48.2298 17.2467 48.8223 18.2676C49.4147 19.2793 49.7747 20.4505 49.9023 21.7812H45.2949C45.2038 21.125 45.0306 20.569 44.7754 20.1133C44.5293 19.6484 44.1738 19.2975 43.709 19.0605C43.2441 18.8145 42.6426 18.6914 41.9043 18.6914C41.3301 18.6914 40.806 18.8145 40.332 19.0605C39.8672 19.3066 39.4707 19.6803 39.1426 20.1816C38.8145 20.6738 38.5592 21.2936 38.377 22.041C38.2038 22.7884 38.1172 23.6634 38.1172 24.666V25.8008C38.1172 26.7943 38.1992 27.6647 38.3633 28.4121C38.5365 29.1595 38.7917 29.7839 39.1289 30.2852C39.4753 30.7773 39.9128 31.151 40.4414 31.4062C40.9792 31.6523 41.6126 31.7754 42.3418 31.7754C42.8522 31.7754 43.2897 31.7344 43.6543 31.6523C44.0189 31.5612 44.3197 31.4518 44.5566 31.3242C44.8027 31.1875 44.9896 31.0599 45.1172 30.9414V27.8516H41.7812V24.5566H49.916Z" fill="white"/>
<path d="M69.5625 24.8438V25.6504C69.5625 27.1725 69.3483 28.5397 68.9199 29.752C68.5006 30.9551 67.9036 31.985 67.1289 32.8418C66.3542 33.6895 65.4381 34.3411 64.3809 34.7969C63.3236 35.2435 62.1569 35.4668 60.8809 35.4668C59.5957 35.4668 58.4199 35.2435 57.3535 34.7969C56.2962 34.3411 55.3757 33.6895 54.5918 32.8418C53.8171 31.985 53.2155 30.9551 52.7871 29.752C52.3678 28.5397 52.1582 27.1725 52.1582 25.6504V24.8438C52.1582 23.3216 52.3678 21.9544 52.7871 20.7422C53.2155 19.5299 53.8125 18.5 54.5781 17.6523C55.3529 16.7956 56.2689 16.1439 57.3262 15.6973C58.3926 15.2415 59.5684 15.0137 60.8535 15.0137C62.1296 15.0137 63.2962 15.2415 64.3535 15.6973C65.4199 16.1439 66.3405 16.7956 67.1152 17.6523C67.89 18.5 68.4915 19.5299 68.9199 20.7422C69.3483 21.9544 69.5625 23.3216 69.5625 24.8438ZM64.6953 25.6504V24.8164C64.6953 23.832 64.6087 22.9661 64.4355 22.2188C64.2715 21.4622 64.0254 20.8288 63.6973 20.3184C63.3691 19.8079 62.9635 19.4251 62.4805 19.1699C62.0065 18.9056 61.4642 18.7734 60.8535 18.7734C60.2155 18.7734 59.6595 18.9056 59.1855 19.1699C58.7116 19.4251 58.3151 19.8079 57.9961 20.3184C57.6771 20.8288 57.4355 21.4622 57.2715 22.2188C57.1165 22.9661 57.0391 23.832 57.0391 24.8164V25.6504C57.0391 26.6257 57.1165 27.4915 57.2715 28.248C57.4355 28.9954 57.6771 29.6289 57.9961 30.1484C58.3242 30.668 58.7253 31.0599 59.1992 31.3242C59.6823 31.5885 60.2428 31.7207 60.8809 31.7207C61.4915 31.7207 62.0339 31.5885 62.5078 31.3242C62.9818 31.0599 63.3783 30.668 63.6973 30.1484C64.0254 29.6289 64.2715 28.9954 64.4355 28.248C64.6087 27.4915 64.6953 26.6257 64.6953 25.6504Z" fill="white"/>
</g>
<defs>
<clipPath id="clip0_117_80">
<rect width="69.5625" height="50.4668" fill="white"/>
</clipPath>
</defs>
</svg>
